# xmcd CD database file
#
# Track frame offsets:
#	187
#	19485
#	42012
#
# Disc length: 817 seconds
#
# Revision: 0
# Processed by: cddbd v1.5PL3 Copyright (c) Steve Scherf et al.
# Submitted via: CDex 1.51
#
DISCID=1d032f03
DTITLE=The KIX･S - FLOWER and FLOWER 〜はな と はな〜
DYEAR=1997
DGENRE=JPop
TTITLE0=FLOWER and FLOWER 〜はな と はな〜
TTITLE1=愛だから…
TTITLE2=FLOWER and FLOWER 〜はな と はな〜 (BACKING TRACK)
EXTD=YEAR: 1997
EXTT0=
EXTT1=
EXTT2=
PLAYORDER=
